<svg width="32" height="32" viewBox="0 0 32 32" fill="none" xmlns="http://www.w3.org/2000/svg">
  <path d="M16 2C8.268 2 2 8.268 2 16s6.268 14 14 14 14-6.268 14-14S23.732 2 16 2zm0 25.2c-6.188 0-11.2-5.012-11.2-11.2S9.812 4.8 16 4.8 27.2 9.812 27.2 16 22.188 27.2 16 27.2z" fill="currentColor"/>
  <path d="M20.5 8.5l-6 6-3-3L10 13l4.5 4.5 7.5-7.5z" fill="currentColor"/>
  <path d="M16 10.4c.884 0 1.6-.716 1.6-1.6 0-.884-.716-1.6-1.6-1.6-.884 0-1.6.716-1.6 1.6 0 .884.716 1.6 1.6 1.6zM16 24.8c.884 0 1.6-.716 1.6-1.6 0-.884-.716-1.6-1.6-1.6-.884 0-1.6.716-1.6 1.6 0 .884.716 1.6 1.6 1.6zM8.8 16c0-.884-.716-1.6-1.6-1.6-.884 0-1.6.716-1.6 1.6 0 .884.716 1.6 1.6 1.6.884 0 1.6-.716 1.6-1.6zM24.8 16c0-.884-.716-1.6-1.6-1.6-.884 0-1.6.716-1.6 1.6 0 .884.716 1.6 1.6 1.6.884 0 1.6-.716 1.6-1.6z" fill="currentColor"/>
</svg>